<?xml version="1.0" encoding="UTF-8"?>
<svg version="1.1" xmlns="http://www.w3.org/2000/svg" width="399" height="437">
<path d="M0 0 C131.67 0 263.34 0 399 0 C399 144.21 399 288.42 399 437 C267.33 437 135.66 437 0 437 C0 292.79 0 148.58 0 0 Z " fill="#FEFEFE" transform="translate(0,0)"/>
<path d="M0 0 C0 0.33 0 0.66 0 1 C-0.76328613 1.03963867 -1.52657227 1.07927734 -2.31298828 1.12011719 C-18.79550656 2.01453656 -34.85518781 3.38553705 -51 7 C-52.19230225 7.26055176 -52.19230225 7.26055176 -53.40869141 7.52636719 C-82.77811335 14.09880039 -108.960976 27.79889947 -132.58203125 46.22265625 C-134.68152078 47.76589977 -136.68371487 48.84439167 -139 50 C-139.5775 50.721875 -140.155 51.44375 -140.75 52.1875 C-142.61032708 54.51290885 -144.25638836 56.16191989 -146.5 58.0625 C-156.37061769 66.55965512 -164.91286032 75.82845377 -172.69287109 86.25292969 C-173.94258103 87.92325549 -175.21398041 89.57497164 -176.48828125 91.2265625 C-187.94588854 106.36273678 -196.38727777 123.57311731 -203.28564453 141.19580078 C-203.85455469 142.63265863 -204.46694005 144.05228276 -205.09375 145.46484375 C-206.43907054 149.22826199 -207.12701452 153.08002317 -207.875 157 C-208.04427002 157.86705566 -208.21354004 158.73411133 -208.38793945 159.62744141 C-208.93075323 162.41726919 -209.4658936 165.20849313 -210 168 C-210.37104453 169.92448866 -210.74213819 171.84896784 -211.11328125 173.7734375 C-211.80136733 177.35616683 -212.48788252 180.93918037 -213.16796875 184.5234375 C-213.30485107 185.24450684 -213.4417334 185.96557617 -213.58276367 186.70849609 C-213.72045166 187.46469238 -213.85813965 188.22088867 -214 189 C-214.1757959 189.89638184 -214.3515918 190.79276367 -214.53271484 191.71630859 C-215.11778408 195.82768852 -215.23841396 199.86735787 -215.30859375 204.015625 C-215.32385605 204.89184006 -215.33911835 205.76805511 -215.35484314 206.67082214 C-215.6767635 229.46977602 -214.25009756 250.79722729 -209 273 C-208.75443359 274.05203613 -208.50886719 275.10407227 -208.25585938 276.18798828 C-205.22720662 288.75105685 -200.71736479 300.42709426 -195 312 C-194.64534668 312.72171387 -194.29069336 313.44342773 -193.92529297 314.18701172 C-184.11909854 333.91850415 -171.35598955 351.02698042 -156.5 367.25 C-156.01998535 367.77480957 -155.5399707 368.29961914 -155.04541016 368.84033203 C-152.93978401 371.09546134 -150.83029539 373.13392351 -148.40625 375.046875 C-146 377 -146 377 -144.08203125 379.45703125 C-141.6336607 382.44744256 -138.84276643 384.51767537 -135.6875 386.6875 C-135.07575928 387.11538818 -134.46401855 387.54327637 -133.83374023 387.98413086 C-131.89595373 389.33291702 -129.94948687 390.66819163 -128 392 C-127.38092773 392.42506836 -126.76185547 392.85013672 -126.12402344 393.28808594 C-112.01983048 402.94145705 -97.94608053 411.71844185 -82 418 C-81.33274902 418.26409668 -80.66549805 418.52819336 -79.97802734 418.80029297 C-68.26363334 423.35917988 -56.26281696 426.30943937 -44 429 C-44 429.33 -44 429.66 -44 430 C-50.39961503 430.1222037 -56.48233894 429.73673839 -62.8125 428.8125 C-63.71540771 428.68157959 -64.61831543 428.55065918 -65.54858398 428.41577148 C-83.40416067 425.67532121 -100.68122001 420.76012248 -117 413 C-118.36013605 412.36992452 -119.72085522 411.74110686 -121.08203125 411.11328125 C-141.66491496 401.58927444 -160.95152355 390.26119558 -177 374 C-178.1495967 372.87092272 -179.3007518 371.74343085 -180.453125 370.6171875 C-187.79302706 363.4022936 -194.72592424 356.17611135 -201 348 C-201.56074219 347.29488281 -202.12148437 346.58976562 -202.69921875 345.86328125 C-205.85677367 341.81492998 -208.41587847 337.64063549 -210.83203125 333.11328125 C-211.90161403 331.17801609 -213.05351066 329.37809515 -214.3125 327.5625 C-216 325 -216 325 -216 323 C-216.66 323 -217.32 323 -218 323 C-246.81033728 271.34212066 -254.68421806 211.24408702 -239 154 C-234.15709855 137.25008426 -227.56991873 114.56991873 -215 102 C-213.81636019 100.27534617 -212.67379576 98.52213311 -211.5625 96.75 C-210.69818359 95.38101563 -210.69818359 95.38101563 -209.81640625 93.984375 C-208.53304333 91.87579593 -207.30901799 89.73055497 -206.12890625 87.5625 C-203.95767566 83.7413013 -201.27658679 80.53556531 -198.375 77.25 C-197.84938477 76.64728271 -197.32376953 76.04456543 -196.78222656 75.42358398 C-195.19499164 73.60956701 -193.59843446 71.80414865 -192 70 C-191.5369043 69.47229004 -191.07380859 68.94458008 -190.59667969 68.40087891 C-185.96573031 63.1291155 -181.29528116 58.11452799 -175.88671875 53.6328125 C-174.39061788 52.33805025 -172.96434196 50.96267958 -171.56640625 49.5625 C-158.92543054 36.94076474 -143.26005556 27.52340422 -127.15576172 20.0078125 C-125.65862867 19.30790704 -124.16572827 18.59890445 -122.67626953 17.8828125 C-106.3729334 10.04827242 -89.73082791 4.619032 -72 1 C-71.14148438 0.81824219 -70.28296875 0.63648438 -69.3984375 0.44921875 C-46.09863822 -4.16146661 -23.35082653 -4.01118493 0 0 Z " fill="#0B080C" transform="translate(257,4)"/>
<path d="M0 0 C32.71429218 1.34569429 65.06977032 13.92637866 88.9375 36.75 C91 39 91 39 91 41 C91.66 41 92.32 41 93 41 C93 41.66 93 42.32 93 43 C93.66 43 94.32 43 95 43 C96.36176922 44.64351457 97.68962066 46.31522656 99 48 C99.7425 48.721875 100.485 49.44375 101.25 50.1875 C124.67399659 74.14386015 136.73325866 111.53792955 136.47900391 144.67382812 C136.162356 154.9749518 134.25449954 164.9683509 132 175 C131.6596875 176.56234375 131.6596875 176.56234375 131.3125 178.15625 C130.65414263 180.82259737 129.86651742 183.39334513 129 186 C128.78537109 186.65967773 128.57074219 187.31935547 128.34960938 187.99902344 C121.70512719 208.13408357 111.79361006 228.74307037 94.93359375 242.3125 C92.67702267 244.28187112 90.86224812 246.45607301 88.9375 248.75 C71.01587151 268.90038297 42.16479946 280.76937322 16 285 C14.87464844 285.18433594 13.74929688 285.36867188 12.58984375 285.55859375 C6.56781257 286.27854127 0.49498475 286.18600086 -5.5612793 286.18530273 C-7.66541152 286.18747717 -9.76900778 286.20564963 -11.87304688 286.22460938 C-20.40301112 286.25880589 -28.59968219 285.59442531 -37 284 C-37 283.67 -37 283.34 -37 283 C-36.26587891 282.96036133 -35.53175781 282.92072266 -34.77539062 282.87988281 C-20.79889965 282.08785248 -7.3924577 281.3219821 6 277 C6.67643555 276.78859375 7.35287109 276.5771875 8.04980469 276.359375 C41.57407688 265.78408877 72.75617249 243.57141677 89.28173828 211.97998047 C93.04751663 204.51799524 96.19523529 196.87491629 99 189 C99.66 189 100.32 189 101 189 C101.37125 187.2675 101.37125 187.2675 101.75 185.5 C102.89210965 180.30709859 104.21669202 175.16122687 105.59082031 170.02539062 C108.23141316 159.79881717 108.24003311 149.50686247 108.25 139 C108.25100708 138.26422729 108.25201416 137.52845459 108.25305176 136.77038574 C108.23924045 121.86148266 106.52572047 108.67434703 101.76953125 94.44140625 C101 92 101 92 101 90 C100.34 90 99.68 90 99 90 C98.731875 89.2471875 98.46375 88.494375 98.1875 87.71875 C85.99512736 54.6710031 61.96455083 26.03430949 29.52539062 11.05029297 C19.93798895 7.06295712 9.90435386 4.09099591 0 1 C0 0.67 0 0.34 0 0 Z " fill="#F9B616" transform="translate(259,77)"/>
<path d="M0 0 C9.9 0 19.8 0 30 0 C29.278125 3.58875 28.55625 7.1775 27.8125 10.875 C26.4530024 17.63830074 25.10233137 24.40215298 23.8359375 31.18359375 C21.16314121 45.47629745 18.14384348 59.66890569 14.94213867 73.85083008 C12.71244185 83.7309213 10.58024164 93.62763449 8.51278687 103.54293823 C7.81907152 106.86693414 7.12084421 110.18997689 6.42285156 113.51307678 C5.50957086 117.86257092 4.59863047 122.21255503 3.6875 126.5625 C3.49368744 127.48732178 3.29987488 128.41214355 3.10018921 129.36499023 C1.07298133 139.04058763 -0.94917525 148.71706585 -2.9296875 158.40234375 C-3.1533046 159.49581367 -3.1533046 159.49581367 -3.38143921 160.6113739 C-3.67409372 162.04284229 -3.9667272 163.47431499 -4.25933838 164.90579224 C-7.34069438 179.97720298 -10.61907498 194.99199138 -14 210 C-24.23 210 -34.46 210 -45 210 C-35.65871532 161.09562726 -35.65871532 161.09562726 -30.25683594 137.14208984 C-27.83610976 126.37572773 -25.60764796 115.57235992 -23.39453125 104.76171875 C-21.97386346 97.83150779 -20.49312579 90.91494479 -19 84 C-18.34 84 -17.68 84 -17 84 C-16.86424561 82.83823242 -16.72849121 81.67646484 -16.58862305 80.47949219 C-16.07670506 76.39423755 -15.36617407 72.3709742 -14.58203125 68.328125 C-14.44429794 67.61585754 -14.30656464 66.90359009 -14.16465759 66.16973877 C-13.71716292 63.86251767 -13.26521825 61.55620144 -12.8125 59.25 C-12.65793335 58.45875732 -12.5033667 57.66751465 -12.34411621 56.85229492 C-10.23221806 46.04968842 -8.05097902 35.26400201 -5.75 24.5 C-5.51643799 23.4059082 -5.28287598 22.31181641 -5.04223633 21.18457031 C-3.50304177 14.0768703 -1.7656134 7.0624536 0 0 Z " fill="#ED1E2C" transform="translate(218,115)"/>
<path d="M0 0 C0 0.33 0 0.66 0 1 C-6.41688675 1.10349817 -12.62694402 0.74507544 -19 0 C-19 -0.33 -19 -0.66 -19 -1 C-12.13252891 -2.10765663 -6.73281213 -1.700773 0 0 Z " fill="#413F42" transform="translate(213,433)"/>
</svg>
